PathFileType	4	(X/Y/Z)	C:\Users\WrightLab\Desktop\Jo\P5V111.trc
DataRate	CameraRate	NumFrames	NumMarkers	Units	OrigDataRate	OrigDataStartFrame	OrigNumFrames
100.00	100.00	      18	19	mm	100.00	729	      1166
Frame#	Time	Headset_Front			Headset_Back			Headset_Left			Headset_Right			Left_Shoulder			Right_Shoulder			Sternum			C7			Left Elbow			Right Elbow			Left Wrist			Right Wrist			Left ASIS			Right ASIS			S2			Left Knee			Right Knee			Left Ankle			Right Ankle			
		X1	Y1	Z1	X2	Y2	Z2	X3	Y3	Z3	X4	Y4	Z4	X5	Y5	Z5	X6	Y6	Z6	X7	Y7	Z7	X8	Y8	Z8	X9	Y9	Z9	X10	Y10	Z10	X11	Y11	Z11	X12	Y12	Z12	X13	Y13	Z13	X14	Y14	Z14	X15	Y15	Z15	X16	Y16	Z16	X17	Y17	Z17	X18	Y18	Z18	X19	Y19	Z19	

729	7.280	325.40411	1506.53979	-211.84656	266.84384	1711.84509	-110.74364							133.53773	1442.75415	19.76542	525.04407	1495.12976	-8.71409	379.31610	1306.98547	-55.44245	332.47348	1547.34436	118.40563	-39.70256	1249.67041	6.60872	719.65167	1300.85229	78.93216	-171.27348	1177.83411	-184.12061	691.33600	1135.57629	-95.78974	294.94247	909.09790	-59.11070	558.25580	976.70471	12.26118	353.96048	1017.73358	220.23041	265.05295	492.82162	-7.47243	599.48578	545.77484	-48.61426	247.47249	111.86669	213.38708	672.59668	128.70686	-45.60506	
730	7.290	326.95166	1506.58728	-217.54654	269.78497	1711.70105	-114.84014							137.66158	1442.42456	17.10872	528.99768	1494.25134	-16.98916	382.08817	1306.60632	-61.78269	338.52002	1546.22058	113.02908	-35.45246	1248.99377	6.70120	724.21185	1299.66956	69.02528	-168.40762	1176.92749	-182.38594	693.16467	1134.00146	-105.21040	297.59079	908.72858	-63.14392	561.46002	975.44885	4.39243	360.87164	1016.97339	214.33447	268.12997	491.97598	-10.34165	603.63403	544.59552	-55.15915	247.77322	112.24298	213.76231	680.14856	130.43982	-65.26087	
731	7.300	327.90582	1506.65710	-223.03177	272.73337	1711.67029	-118.60132							141.87790	1441.86670	14.54943	533.28027	1493.28589	-25.13481	384.97678	1305.79688	-68.19382	344.32523	1546.07629	108.38367	-30.87129	1247.61316	6.16936	728.78564	1298.07275	59.13639	-165.34869	1175.57825	-181.42287	695.22803	1132.63086	-114.60036	300.08255	907.78662	-68.26667	564.66162	974.35571	-3.81224	366.25952	1016.37146	209.09872	271.10175	491.15402	-13.40260	608.06946	542.49207	-61.42517	247.75226	113.16261	213.33963	684.23792	130.43799	-83.59304	
732	7.310	328.91742	1506.59033	-227.42393	275.65182	1711.62158	-122.49600							146.16403	1441.17041	12.04453	537.27386	1492.21716	-32.68744	387.89474	1305.20874	-75.06657	349.75983	1544.38782	101.82333	-25.94656	1246.15576	6.17055	733.39960	1296.75757	48.56498	-163.25365	1175.42590	-181.18877	697.28510	1131.26062	-124.39076	302.75253	907.01300	-73.64186	568.10321	973.42859	-13.09776	372.93079	1015.63019	203.04898	274.24127	490.13058	-16.37495	612.34406	540.98535	-68.96371	247.78996	114.16000	212.57628	686.63531	130.13084	-98.46119	
733	7.320	330.04678	1506.72876	-232.49237	278.70111	1711.52356	-126.12897							150.47934	1440.45471	9.48637	541.34747	1491.51477	-40.42721	390.90512	1304.79407	-81.30438	355.91409	1543.56421	96.89220	-21.29701	1245.55591	6.41270	738.08215	1295.08765	38.16059	-160.09529	1173.98889	-179.58528	699.18060	1129.57153	-134.16194	305.41666	906.33405	-79.18876	571.53925	972.76050	-21.82227	378.11017	1014.09058	194.09821	276.92688	489.63086	-19.85849	616.77209	539.88171	-77.42097	248.22852	114.98055	211.45328	688.38910	128.96738	-111.66037	
734	7.330	330.75778	1507.00842	-237.79280	281.79034	1711.51611	-129.76532							154.95345	1439.57104	7.15212	545.31036	1490.81360	-48.80844	393.60080	1304.11914	-86.80781	361.22955	1542.95251	91.82346	-15.55647	1244.38904	5.99556	742.46344	1293.23853	27.56997	-157.10175	1172.91833	-178.03442	700.51788	1128.02722	-144.56767	308.13669	905.45807	-84.73886	575.32550	971.70074	-30.54908	383.90085	1012.49493	187.26288	280.09824	488.36215	-22.89135	621.21674	538.06097	-85.33335	248.08118	115.99998	210.75177	690.43793	127.67743	-121.48790	
735	7.340	332.02112	1507.02124	-242.26535	284.89487	1711.39783	-132.94405							159.84770	1438.99365	4.51086	549.42261	1490.31262	-57.04012	396.87363	1303.43115	-93.43997	367.47519	1541.77112	86.56430	-10.91480	1242.91882	5.42134	747.16351	1291.83313	16.14610	-154.21353	1171.85986	-176.87326	701.79486	1126.40674	-154.19034	311.11295	904.72522	-90.69587	579.05176	970.98865	-39.88348	391.88766	1012.42664	184.58232	283.51282	487.50458	-26.53265	624.63617	536.63971	-94.58355	248.89439	117.02513	209.62347	690.96539	125.10424	-129.03477	
736	7.350	333.16806	1507.22314	-246.68811	288.09406	1711.25964	-136.15567							164.79094	1438.04565	1.60763	553.42249	1489.04663	-64.70974	400.08746	1303.12146	-100.10265	373.26938	1540.86414	81.48373	-6.02516	1241.91333	4.67436	751.62598	1290.59180	5.44570	-151.35905	1170.13660	-174.44173	703.78729	1124.83423	-164.51003	314.12482	903.86481	-96.61977	582.80444	970.19257	-48.73603	397.39233	1010.59424	176.13702	286.64978	486.75751	-30.26852	627.50677	534.57214	-103.92210	249.06665	118.36513	209.09593	691.93683	122.52896	-135.05769	
737	7.360	334.21597	1507.50769	-251.08716	291.28653	1711.01355	-139.03398							169.74052	1437.35693	-0.63674	557.43384	1488.35596	-73.25059	403.23636	1302.33447	-106.83675	379.68347	1539.29114	76.00909	-0.81127	1240.99292	4.38267	756.35712	1289.14514	-5.71913	-148.48196	1169.50244	-173.59853	704.94257	1123.36462	-175.04918	317.06241	902.47357	-104.62358	586.59906	969.37012	-58.01753	404.96323	1009.28851	171.28221	290.63220	486.11438	-34.82453	629.33020	533.38342	-113.93352	249.59267	119.82755	207.91975	691.65088	118.75658	-138.88251	
738	7.370	334.84366	1507.48523	-255.78937	294.48221	1710.79016	-141.61826							174.48750	1436.20374	-2.73140	560.14392	1486.81519	-78.37725	406.61279	1301.59583	-112.35499	384.77402	1537.94775	71.42849	3.72727	1239.89148	3.27956	761.00409	1287.53613	-16.99899	-145.51225	1168.45386	-172.11880	706.09186	1121.97656	-185.21539	320.54205	901.70331	-110.72376	590.91644	968.54559	-67.60525	411.37662	1007.59357	165.02040	294.19574	484.88251	-38.96531	631.26611	531.74658	-123.42538	249.88327	121.28252	206.63773	693.55237	117.04578	-141.52150	
739	7.380	335.32309	1507.89111	-259.56543	297.73413	1710.44946	-143.98999							179.44911	1434.91931	-4.71203	564.85840	1487.48267	-88.75660	409.86295	1300.96936	-119.22617	391.13675	1536.38110	66.75146	9.46890	1238.67749	3.34464	765.52057	1286.21118	-29.11055	-142.98041	1167.80200	-170.79163	707.02576	1120.68542	-195.79994	324.40173	900.59961	-116.88834	595.06177	967.64075	-76.95851	417.91486	1006.54187	158.87868	298.56125	484.11880	-44.10339	632.75549	530.19220	-133.03476	250.87395	123.04573	205.22398	693.52344	114.11465	-143.09822	
740	7.390	335.99759	1507.82983	-263.14450	300.95062	1710.02075	-146.03568							184.60054	1433.53650	-6.81158	569.22308	1486.31128	-96.53410	413.17310	1300.59924	-125.46596	397.50467	1534.62219	61.59498	14.27918	1237.66479	4.12589	769.57794	1284.93604	-40.44342	-139.95804	1166.62842	-169.37595	707.67627	1119.47363	-206.46533	327.70319	899.85388	-123.03230	599.38232	966.85638	-87.29974	425.10785	1003.98779	151.81819	303.15649	483.13287	-49.08179	634.00061	528.67841	-143.50764	251.45679	125.05096	203.84337	693.31311	111.70112	-144.73141	
741	7.400	336.64017	1508.22083	-268.01004	304.14246	1709.59888	-147.87991							189.80551	1432.11951	-8.66508	572.90576	1486.35303	-104.82660	416.57587	1299.57764	-131.05504	403.30786	1532.99915	56.79129	19.49021	1236.66357	2.73771	774.09821	1283.71423	-52.57711	-137.47032	1166.31372	-167.94734	707.41833	1117.97180	-217.12111	331.39270	898.69153	-130.15804	604.16669	966.02185	-97.35739	430.92511	1001.42230	142.76630	308.22681	482.31210	-54.76415	636.06964	526.44238	-152.86780	252.05315	127.58041	202.25784	693.41388	110.24087	-146.47641	
742	7.410	337.63306	1508.66003	-270.63535	307.76044	1709.44592	-150.97446							195.14732	1430.94312	-10.64750	576.54852	1486.43542	-113.14625	420.20297	1299.00220	-137.26157	410.07803	1531.58435	52.25281	24.70149	1235.72510	2.23649	778.37231	1282.20679	-64.03938	-135.04109	1165.48071	-166.07658	708.44794	1117.13745	-227.74095	335.15652	897.87311	-137.16646	608.44287	965.31812	-107.76659	439.10388	1000.33551	138.60605	314.07199	481.55963	-60.63695	637.13409	523.65778	-161.90851	253.11526	130.12085	199.85391	692.74469	109.60061	-146.28192	
743	7.420	337.95651	1509.04785	-275.41287	309.51660	1709.39819	-152.11719							199.83504	1431.28345	-12.52812	579.09827	1484.09717	-115.82378	423.87463	1299.77576	-143.71126	416.27835	1531.28503	47.13004	30.00818	1235.17725	1.47243	782.48059	1281.12000	-76.18130	-131.89764	1165.28662	-164.84596	709.07013	1116.36377	-238.66327	338.69952	897.05823	-144.06743	613.16992	965.05267	-118.59891	446.61823	998.89124	131.75298	319.94574	480.07483	-66.62468	638.10760	521.50519	-171.69981	253.91689	134.43774	197.36012	692.64148	109.50938	-146.48279	
744	7.430	337.91644	1510.00659	-279.94485	311.37457	1709.92627	-154.91968							204.35619	1431.37122	-14.35531	582.74255	1484.49072	-122.96280	426.63245	1300.23267	-150.69994	422.15207	1530.80725	41.55762	35.14215	1234.51196	1.90520	787.61462	1281.28223	-88.96062	-128.79436	1164.90222	-162.74518	709.22345	1115.13831	-249.38110	342.09088	896.72577	-150.54500	617.49103	965.16449	-128.61998	453.08115	997.80292	122.24953	326.27588	478.41687	-72.62396	640.44019	520.07587	-180.47578	255.39639	138.73383	194.66040	693.17993	110.23747	-147.62712	
745	7.440	337.32880	1511.60986	-283.39508	312.71237	1710.89087	-158.02405							208.66251	1431.51953	-16.49930	586.29993	1484.89465	-130.31212	429.59946	1300.66797	-156.54491	427.71408	1531.45898	36.55777	40.87545	1234.46033	-0.29202	790.24963	1280.39954	-100.24935	-125.31527	1164.33093	-160.70599	709.43024	1114.40503	-259.82690	345.11044	897.04437	-157.79764	621.36859	966.19873	-138.73584	461.22546	998.40289	118.87140	333.48770	477.64923	-80.02279	642.81982	520.10852	-188.35040	257.34924	143.77541	190.53583	693.57849	109.90689	-149.59573	
746	7.450	336.89252	1513.45410	-287.75052	313.98334	1711.92725	-161.37115							214.17888	1432.24817	-18.82949	589.33356	1485.76123	-139.28082	432.32794	1302.11426	-162.08354	433.17053	1531.71582	31.04902	47.25559	1234.57629	-0.23359	793.15234	1280.37354	-112.89318	-121.90539	1164.52612	-158.91220	709.57965	1114.08655	-270.54944	348.45203	897.61908	-162.36913	625.72546	967.04712	-148.58698	469.00510	998.75439	111.23302	340.04248	477.05899	-87.55812	646.09180	521.11609	-194.98132	259.50150	149.59726	185.55229	694.27362	109.67263	-150.04565	
